<svg xmlns="http://www.w3.org/2000/svg" viewBox="0 0 1221.31 586.57"><defs><style>.cls-1{fill:#af0026;}.cls-2{fill:#fff200;}.cls-3{fill:#9cdd3e;}</style></defs><title>Asset 1</title><g id="Layer_2" data-name="Layer 2"><g id="Layer_1-2" data-name="Layer 1"><path class="cls-1" d="M494.36,19.17A19.17,19.17,0,1,1,475.2,0a19.16,19.16,0,0,1,19.16,19.17"/><path class="cls-1" d="M329.35,529.35a41.59,41.59,0,1,1-41.58-41.58,41.58,41.58,0,0,1,41.58,41.58"/><path class="cls-2" d="M143.12,500.43q-17.67,2.37-33.83,3.61-16.35,1.27-33.42,1.89a9.88,9.88,0,0,1-10.18-10L74,346.11c3.47,0,7-.1,10.55-.28s7-.27,10.27-.27q8.77,0,17.54.27,3.56.1,7.06.27a9.79,9.79,0,0,0,10.2-9.82V302.16a9.82,9.82,0,0,0-10-9.8l-47.3,0c2.36-37,.27-101.19-.43-131a23.23,23.23,0,0,1,24-23.72c7.73.27,15.41.61,19.76,1q11,1.09,22.17,2.79a9.81,9.81,0,0,0,11.39-9.64V90.93a9.87,9.87,0,0,0-10.61-9.79q-15.21,1.1-29,1.81-18.51,1-37.14,1-24.22,0-50.51-1.69A9.83,9.83,0,0,0,11.43,92.57c1.66,28.76,2.86,138,3.6,166.36Q16.26,307,16.26,355.8q0,51-1.52,101-1.34,44.64-3.45,90a9.87,9.87,0,0,0,10.4,10.3q16.44-.9,32.11-1.42Q74.62,555,96,555q14.25,0,28.64.27,9.56.18,19.53.49a9.88,9.88,0,0,0,10.2-9.81V510.12a9.86,9.86,0,0,0-11.24-9.69"/><path class="cls-2" d="M305.18,73.74a24.23,24.23,0,0,1-3.89.21c-8.86.87-17.07,1.08-25.06,1.52-12.32.64-24.84,1.08-37.16,1.08-16.2,0-33-.65-50.55-1.73A10.08,10.08,0,0,0,177.94,85.4c1.73,28.73,3,57.25,3.67,85.55.87,32,1.3,64.37,1.3,96.77,0,34.13-.65,67.62-1.51,101.1-.87,25.49-5,58.11-7.56,87.27a20.5,20.5,0,0,0,11,20.31,20.8,20.8,0,0,0,12.1,2.37c11.45-1.08,25.06-2.59,36.29-3.67A21,21,0,0,0,252,451.34L235,320.43c3,0,6.26-.21,9.5-.21,3.24-.22,6.48-.44,9.72-.44,5.84,0,11.67.22,17.5.44,2.38,0,4.75,0,6.92.21A10,10,0,0,0,289,310.49V276.36a9.92,9.92,0,0,0-10.15-9.72H258.51a22.7,22.7,0,0,1-10.15-2.37,23,23,0,0,1-13.17-21.39c.43-22.47,1.07-56.38,1.72-76.69a36.74,36.74,0,0,1,38.67-35.42c2.59.21,4.75.43,6.7.65,7.13.64,14.69,1.51,22,2.8a9.9,9.9,0,0,0,11.45-9.72v-41a9.89,9.89,0,0,0-10.58-9.72"/><path class="cls-2" d="M481.88,380.48a498.23,498.23,0,0,1-27-43.42c-9.51-17.06-18.15-34.78-26.14-53.14-1.52-3.45-.22-7.13,3-9.28a101.33,101.33,0,0,0,19.45-17.29,111.18,111.18,0,0,0,16.84-25.05,119,119,0,0,0,9.29-28.09,146.62,146.62,0,0,0,3-28.94c0-14.48-1.72-26.79-4.75-37.16a97.88,97.88,0,0,0-12.31-26.57A74.1,74.1,0,0,0,446,94a83.69,83.69,0,0,0-38-15.12h-.22a104.65,104.65,0,0,0-14.9-1.29c-5.84,0-13,.43-21.38,1.08a132.42,132.42,0,0,0-18.59,3,7.83,7.83,0,0,0-6.26,7.78c.87,17.28,1.3,34.34,1.73,51.19.22,19,.43,38.24.43,57.25,0,32.83-.65,65.67-1.73,98.29-1.08,29.81-2.81,59.62-5,89.43a7.49,7.49,0,0,0,2.37,5.83,8.49,8.49,0,0,0,6.05,2.38H389.2c5,0,8.64-3.89,8.22-8.21-1.08-14.26-1.95-28.52-2.81-42.77v-.65a7.07,7.07,0,0,1,4.1-6.91c4.11-2.16,10.16-1.09,12.1,4.1l19,49.68a15.86,15.86,0,0,0,1.51,2.6,8.2,8.2,0,0,0,6.7,2.59l37.37-1.94c6.26-.22,9.93-6.92,6.48-11.89m-65-140.41c-5.19,5.83-12.75,5.62-18.15,2a14.48,14.48,0,0,1-6.48-12.32c.21-16.63.65-37.58,1.3-49.47.64-18.57,1.94-37.15,3.24-55.73a7.17,7.17,0,0,1,4.32-6,8.21,8.21,0,0,1,8.85.22c1.3,1.08,2.38,1.94,3.46,3a59,59,0,0,1,10.8,14.48,64.42,64.42,0,0,1,6.27,16.63c1.51,5.62,2.59,11,3.45,15.77q1,7.45,1.3,12.31v5.19A112.41,112.41,0,0,1,430,216.53a123.18,123.18,0,0,1-5.19,12.09,66.24,66.24,0,0,1-7.78,11.45Z"/><path class="cls-2" d="M660.53,412.45c-1.09.22-2.17.22-3,.44-10.8,1.29-21,2.37-30.89,3.24-4.1.21-8.86,1.51-14,3a25.48,25.48,0,0,1-18.8-1.08,26.72,26.72,0,0,1-15.33-26.14l5.62-71.5c3.45,0,6.91-.22,10.58-.22,3.45-.21,6.91-.43,10.15-.43,5.83,0,11.67.22,17.5.43,2.37,0,4.75,0,7.13.22a9.82,9.82,0,0,0,10.15-9.94V276.36a9.86,9.86,0,0,0-9.93-9.72H593.77a8.48,8.48,0,0,1-6-2.37,9.49,9.49,0,0,1-3.46-7.78c.22-19.44.65-39.1,1.3-58.54.43-15.12.43-36.51,1.08-55.95a18.58,18.58,0,0,1,17.71-17.93,16.41,16.41,0,0,1,7.13,1.08c4.32,1.51,8.43,3,12.1,4.1a59.24,59.24,0,0,0,9.28,2.16c7.35.65,14.69,1.52,22.26,2.81a9.9,9.9,0,0,0,11.44-9.72v-41A9.88,9.88,0,0,0,656,73.74a24.16,24.16,0,0,1-3.89.21c-8.86.87-17.28,1.08-25.27,1.52-12.31.64-24.63,1.07-37.16,1.07-16,0-32.83-.64-50.33-1.72a9.93,9.93,0,0,0-10.59,10.37c1.73,28.73,2.81,57.46,3.68,85.75.65,32,1.08,64.38,1.08,96.78,0,34.13-.43,67.62-1.51,101.1-.87,29.81-2,59.62-3.46,89.86a9.15,9.15,0,0,0,3.46,7.78,8.67,8.67,0,0,0,7.12,2.59c10.8-.65,21.6-1.08,32-1.3,13.83-.43,28.09-.64,42.35-.64,9.28,0,19,0,28.51.21,6.48,0,13,.22,19.66.43A9.9,9.9,0,0,0,671.76,458V422.18a9.84,9.84,0,0,0-11.23-9.73"/><path class="cls-2" d="M765.73,217a24.19,24.19,0,0,1,8-7.56,19.66,19.66,0,0,1,10.37-2.81,35.87,35.87,0,0,1,4.53.21c.87,0,1.73.22,2.81.22a49.06,49.06,0,0,1,9.51,2.59l3.45,1.3,5.4,2.16a10.14,10.14,0,0,0,13.83-8.64l2.16-27.65a120,120,0,0,0-23.11-9.29,52.84,52.84,0,0,0-9.51-1.73A70.32,70.32,0,0,0,756,169.22,55.81,55.81,0,0,0,735.7,183q-9.08,9.08-14.26,23.33c-3.45,9.29-5.4,20.53-5.4,33.49a85.24,85.24,0,0,0,4.54,28.29A116.06,116.06,0,0,0,732,292.78a166.77,166.77,0,0,0,15.34,21.39c5.83,6.69,11.23,13.17,16.41,19.44,7.78,8.85,13.18,17.06,16.21,24.84q4.53,11.34,4.53,20.74c0,9.29-1.95,16.85-6,22.46-4.1,5.84-10.15,8.86-18.14,8.86A42,42,0,0,1,748,408.13a13.91,13.91,0,0,1-2.81-.86c-1.07-.43-2.37-1.94-3.67-4.1A9.63,9.63,0,0,0,729,399.49a10.25,10.25,0,0,0-6.69,9.94l.43,33.48a103.46,103.46,0,0,0,13.18,5.19l5.18,1.29c2.16.65,4.32,1.08,6.27,1.52,3.45.64,6.69,1.08,9.28,1.29,2.81,0,5,.22,6.48.22a53.35,53.35,0,0,0,10.59-1.3,58,58,0,0,0,25.7-12.74,51.72,51.72,0,0,0,11.45-13.61,71.67,71.67,0,0,0,8.43-19.66c2.16-7.56,3-16.63,3-26.79q0-19.44-4.53-34.34a121.91,121.91,0,0,0-11.88-26.14,144,144,0,0,0-15.56-20.74C785,291.05,779.77,285,775,279.17a119.06,119.06,0,0,1-11.89-17.5,43.54,43.54,0,0,1-4.75-19.87,47,47,0,0,1,2-13.61,33.72,33.72,0,0,1,5.4-11.23"/><path class="cls-2" d="M1012.42,83.67a35.76,35.76,0,0,0-7.34-4.1,81.06,81.06,0,0,0-13.61-5c-3-.65-5.84-1.08-8.86-1.73-2.16-.21-4.54-.43-6.69-.65-5.63-.43-12.53.44-20.31,2.16-7.78,1.52-16,5-24.63,10.16q-12.65,7.77-25.27,21.38-12.65,13.93-23.33,35.65c-6.92,14.47-13,32.18-18.15,52.71-5,20.52-8.21,44.93-9.5,72.79-1.52,27.87-1.08,52.5,1.08,73.45,2.15,21.17,5.61,39.53,10.37,54.87A155,155,0,0,0,883,433.84c6.69,10.37,13.6,18.58,21,24.63a73.66,73.66,0,0,0,22.25,13.39c1.94.65,3.67,1.3,5.4,1.94h.43a67.53,67.53,0,0,0,15.12,2.81,187.35,187.35,0,0,0,18.79-.86c5.4-.43,11.67-1.51,18.8-2.81a112.52,112.52,0,0,0,13.39-3.67,9.76,9.76,0,0,0,6.92-10.8l-4.54-34.57a9.66,9.66,0,0,0-12.75-7.77,2,2,0,0,1-1.07.21,43.38,43.38,0,0,1-18.15,2.81,32.47,32.47,0,0,1-11.23-2.37h-.44a33.64,33.64,0,0,1-8.64-4.76,57.8,57.8,0,0,1-14.69-16.63,104,104,0,0,1-9.93-23.33,215.73,215.73,0,0,1-6-26.57c-3.67-21.17-5.19-44.93-4.32-71.5,1.94-26.79,5.83-50.55,11.45-71.29a181.57,181.57,0,0,1,8.64-25.92,105.63,105.63,0,0,1,12.09-22.47,55.4,55.4,0,0,1,16.21-15.55,35.3,35.3,0,0,1,20.73-5,4.69,4.69,0,0,1,1.73.22,30.9,30.9,0,0,1,7.35,1.29,19.82,19.82,0,0,1,3.45.87,16.68,16.68,0,0,1,3,1.08,9.7,9.7,0,0,0,13-7.78l5.62-36.29a9.78,9.78,0,0,0-4.11-9.51"/><path class="cls-2" d="M1210.29,182c-5-26.35-11.88-47.74-20.3-64.15q-13-24.63-30.46-35.65A70.36,70.36,0,0,0,1130.15,72a.22.22,0,0,0-.22-.22c-2.59-.21-5.4-.43-8-.43a67.71,67.71,0,0,0-37.58,11.23c-11.67,7.35-21.83,19.23-30.68,35.86-8.86,16.42-15.55,38-20.74,64.38-5,26.35-3.88,164.6-3.88,202.41,0,37.58,2.37,69.34,7.55,95,5,25.71,11.88,46.45,20.52,62.22,8.86,15.77,19,27,30.9,33.91a65,65,0,0,0,17.06,7.13,64.26,64.26,0,0,0,20.31,3A69.05,69.05,0,0,0,1163,575.76c11.66-7.12,21.81-18.79,30.45-34.77s15.34-36.73,20.31-62.43c5.19-25.49,7.56-56.6,7.56-93.32,0-38.46-6-176.92-11-203.28m-91.81-58.11a19.6,19.6,0,0,1,3.46-.43c4.76,0,9.29,2.81,13.4,8.21,4.31,5.62,8,14.47,11,26.79,3.24,12.31,5.84,28.3,7.56,48.17,1.95,19.66,6.27,149.92,6.27,178.65,0,27.43-.87,50.54-2.59,69.55-1.95,19-4.32,34.35-7.57,46.23-3.24,11.67-6.91,20.31-11.23,25.49-4.1,5.19-8.64,7.78-13.39,7.78a14.66,14.66,0,0,1-8.64-2.81,24.23,24.23,0,0,1-5.19-4.54c-4.32-5-8-13.17-11.23-24.84s-5.61-27-7.56-46c-1.73-19.23-2.6-42.77-2.6-70.85,0-28.3-2.58-158.56-.85-178.22,1.72-19.87,4.31-36.07,7.55-48.39s6.92-21.17,11.24-26.78c3.24-4.11,6.69-6.92,10.15-8,0,0,0-.21.21,0"/><path class="cls-3" d="M327.13,449.47s58-80.68,144.62,4.6c0,0-22.21,76.3-144.62-4.6"/><path class="cls-3" d="M837.21,7.68s16.56,125.76-138.64,122.11c0,0-46-90.43,138.64-122.11"/><path class="cls-1" d="M131.84,498.05q-17.67,2.35-33.83,3.61-16.35,1.26-33.42,1.88a9.87,9.87,0,0,1-10.18-10l8.28-149.86c3.47,0,7-.09,10.55-.27s7-.28,10.28-.28q8.76,0,17.54.28,3.54.1,7,.26a9.8,9.8,0,0,0,10.21-9.81V299.77a9.81,9.81,0,0,0-10-9.79L61,290c2.35-37,.26-101.19-.44-131a23.22,23.22,0,0,1,24-23.72c7.73.26,15.41.61,19.76,1q11,1.09,22.17,2.79a9.82,9.82,0,0,0,11.39-9.64V88.55a9.86,9.86,0,0,0-10.61-9.79q-15.21,1.09-29,1.81-18.5,1-37.13,1-24.24,0-50.52-1.69A9.81,9.81,0,0,0,.16,90.18C1.82,119,3,228.15,3.75,256.55Q5,304.64,5,353.41q0,51-1.52,101Q2.13,499,0,544.43a9.87,9.87,0,0,0,10.4,10.3q16.44-.91,32.11-1.42,20.82-.67,42.19-.68,14.25,0,28.64.27,9.56.18,19.53.48a9.86,9.86,0,0,0,10.2-9.81V507.74a9.86,9.86,0,0,0-11.24-9.69"/><path class="cls-1" d="M301.29,74a9.92,9.92,0,0,0-7.35-2.59c-10.15.65-19.87,1.3-29.16,1.73-12.32.65-24.63,1.08-36.94,1.08-16.2,0-33.05-.65-50.55-1.73A10.09,10.09,0,0,0,166.71,83c1.73,28.73,2.81,57.24,3.67,85.54.87,32,1.3,64.37,1.3,96.78,0,34.13-.66,67.61-1.51,101.09-.87,25.49-5,58.11-7.78,87.27a20.94,20.94,0,0,0,22.46,22.69h.87c11.45-1.08,25.05-2.6,36.07-3.68a21.16,21.16,0,0,0,19-23.76L223.74,318.05c3,0,6.26-.21,9.5-.21,3.24-.22,6.48-.43,9.5-.43,5.84,0,11.67.21,17.72.43,2.16,0,4.53,0,6.91.21a9.83,9.83,0,0,0,10.16-9.93V274a9.1,9.1,0,0,0-3.68-7.35,9.43,9.43,0,0,0-6.26-2.38H247.28A23.33,23.33,0,0,1,224,240.5c.44-22.46,1.08-56.38,1.73-76.68a36.74,36.74,0,0,1,38.67-35.43c2.59.22,4.75.43,6.48.65,7.34.65,14.9,1.51,22.25,2.81a9.92,9.92,0,0,0,11.45-9.72v-41A9.65,9.65,0,0,0,301.29,74"/><path class="cls-1" d="M470.43,378.11a499.94,499.94,0,0,1-26.79-43.42c-9.5-17.07-18.14-34.78-26.13-53.14-1.52-3.46-.22-7.13,3-9.29A108.31,108.31,0,0,0,440,255a115.21,115.21,0,0,0,26.14-53.14,146.4,146.4,0,0,0,2.81-29c0-14.47-1.51-26.79-4.76-37.16a86.32,86.32,0,0,0-12.31-26.57,69.37,69.37,0,0,0-17.06-17.49A84.83,84.83,0,0,0,415.34,81.3c-2.59-.87-5-1.73-7.34-2.38h-.21a50.65,50.65,0,0,0-11-2.37,108.75,108.75,0,0,0-15.13-1.3c-6,0-13.17.43-21.6,1.08a130.91,130.91,0,0,0-18.36,3,7.85,7.85,0,0,0-6.26,7.78c.86,17.28,1.29,34.35,1.73,51.2.21,19,.43,38.23.43,57.24,0,32.84-.65,65.67-1.73,98.29-1.08,29.81-2.81,59.62-5,89.43a8.07,8.07,0,0,0,8.21,8.21H378c4.75,0,8.65-3.89,8.21-8.21-1.08-14.26-1.94-28.51-2.81-42.77v-.65c-.43-8.21,11-10.8,15.34-4.53a4.29,4.29,0,0,1,.86,1.72l18.8,49.69a8.56,8.56,0,0,0,8.42,5.18l4.54-.21L464.16,390c6.27-.22,9.94-6.91,6.27-11.88M381,227.33c.22-16.85.64-37.59,1.07-49.47.87-18.58,1.95-37.16,3.46-55.74.44-5.83,8-9.5,13.18-5.83.65.65,1.51,1.3,2.38,2.16a3.93,3.93,0,0,1,1.08.87A58.9,58.9,0,0,1,413,133.79a85.79,85.79,0,0,1,6.27,16.63c1.5,5.62,2.58,11,3.45,15.77q1,7.45,1.3,12.32v5.18a105.1,105.1,0,0,1-5.4,30.46,66.34,66.34,0,0,1-5.19,12.1,48.63,48.63,0,0,1-7.78,11.45,13.37,13.37,0,0,1-6.91,4.32c-8.42,1.72-17.93-4.76-17.71-14.69"/><path class="cls-1" d="M657.5,412.89a9.91,9.91,0,0,0-8.42-2.81c-11.67,1.51-22.9,2.81-33.7,3.67-4.11.22-9.07,1.51-14,3a23.34,23.34,0,0,1-7.57,1.29,26.41,26.41,0,0,1-26.57-28.51l5.62-71.51c3.46,0,6.92-.21,10.37-.21,3.67-.22,7.13-.43,10.37-.43,5.83,0,11.66.21,17.5.43,2.37,0,4.75,0,7.13.21a9.82,9.82,0,0,0,10.15-9.93V274a9.07,9.07,0,0,0-3.68-7.35,9.38,9.38,0,0,0-6.26-2.37H582.54a10.21,10.21,0,0,1-9.72-10.16c.43-19.44.87-39.1,1.51-58.54.44-15.12.44-36.51,1.09-55.95a18.56,18.56,0,0,1,24.84-16.85,29,29,0,0,0,4.1,1.3c6.91,2.59,13.4,4.54,17.28,5,.65,0,1.3.21,2,.21,6.7.65,13.39,1.52,20.3,2.6a9.83,9.83,0,0,0,11.23-9.73v-41a9.46,9.46,0,0,0-3-7.13,10.1,10.1,0,0,0-7.56-2.59c-10.15.65-19.66,1.3-28.95,1.73-12.31.65-24.62,1.08-37.15,1.08-16,0-32.84-.65-50.33-1.73a9.81,9.81,0,0,0-10.59,10.37c1.73,28.73,2.81,57.46,3.46,85.76.86,32,1.3,64.37,1.3,96.78,0,34.13-.44,67.61-1.52,101.09-.86,29.6-1.94,59.62-3.45,89.87a9.91,9.91,0,0,0,10.58,10.36c1.29,0,2.81-.21,4.11-.21,9.5-.43,18.79-.87,27.86-1.08q20.75-.64,42.13-.65c9.5,0,19,0,28.73.22,6.26,0,13,.21,19.44.43a10,10,0,0,0,10.37-9.72V419.8a9,9,0,0,0-3-6.91"/><path class="cls-1" d="M754.5,214.58a24,24,0,0,1,8-7.56,19.73,19.73,0,0,1,10.37-2.81c1.94,0,4.31.22,7.34.43a49.16,49.16,0,0,1,8.42,2.17c.44.21.65.21,1.08.43l8.86,3.45a7.76,7.76,0,0,0,5.83.22,9.89,9.89,0,0,0,8-8.86l1.94-27.65a97.31,97.31,0,0,0-21.17-8.64c-.65-.21-1.08-.43-1.73-.65a93.2,93.2,0,0,0-22.68-2.8,64.86,64.86,0,0,0-24,4.53,54.05,54.05,0,0,0-20.3,13.83q-9.08,9.08-14.26,23.33c-3.67,9.28-5.4,20.52-5.4,33.48a85.56,85.56,0,0,0,4.54,28.3A106.11,106.11,0,0,0,720.8,290.4a167,167,0,0,0,15.33,21.39c5.62,6.7,11.24,13.18,16.42,19.44,7.78,8.86,13.18,17.07,16.2,24.84q4.53,11.34,4.54,20.74c0,9.29-1.95,16.85-6,22.47-4.11,5.83-10.15,8.86-18.14,8.86H748a47.19,47.19,0,0,1-14-3.46c-1.07-.22-2.37-1.73-3.89-3.89a5.59,5.59,0,0,0-1.08-1.3c-6-7.12-18.14-2.16-18.14,7.56l.64,33.49a91.74,91.74,0,0,0,13.18,5.18c4.11,1.08,8,2.16,11.45,2.81,1.73.22,3.46.65,5,.86s3,.22,4.32.44c2.81,0,4.75.21,6.48.21a50.32,50.32,0,0,0,10.37-1.29A64.19,64.19,0,0,0,775,444.43,68.12,68.12,0,0,0,788.19,436a55.83,55.83,0,0,0,11.45-13.61,65.45,65.45,0,0,0,8.21-19.66A98.84,98.84,0,0,0,811.09,376c0-13-1.51-24.41-4.75-34.35a112.07,112.07,0,0,0-11.88-26.14,129.64,129.64,0,0,0-15.34-20.74c-5.4-6-10.59-12.09-15.34-17.93A119.42,119.42,0,0,1,751.9,259.3a41,41,0,0,1-4.75-19.88,46,46,0,0,1,2-13.61,33.81,33.81,0,0,1,5.4-11.23"/><path class="cls-1" d="M1001,81.3A38.44,38.44,0,0,0,993.84,77c-3.89-1.51-7.56-3-11.23-4.11L980,72.22a118.93,118.93,0,0,0-15.34-2.37c-5.62-.43-12.53.43-20.31,2.16-8,1.51-16,5-24.62,10.15q-12.64,7.78-25.27,21.39-12.65,13.94-23.34,35.64C864,153.66,858,171.38,853,191.9s-8.21,44.93-9.72,72.8c-1.3,27.86-1.08,52.49,1.29,73.44,2.17,21.17,5.62,39.53,10.16,54.87,4.75,15.34,10.37,28.09,17.06,38.45a101,101,0,0,0,21,24.63A73.33,73.33,0,0,0,915,469.48a75.35,75.35,0,0,0,16.63,4.32h.43a23.41,23.41,0,0,0,3.89.44,187.63,187.63,0,0,0,18.8-.87c5.4-.43,11.66-1.51,18.79-2.81,4.32-1.08,8.85-2.16,13.39-3.67a10,10,0,0,0,6.91-10.8l-4.53-34.56a7.57,7.57,0,0,0-2.59-5.19,9.24,9.24,0,0,0-10.16-2.59,54.24,54.24,0,0,1-19.22,3h-.44A34.65,34.65,0,0,1,937,409.65a56.07,56.07,0,0,1-14.69-16.85,98.73,98.73,0,0,1-9.94-23.12,217.15,217.15,0,0,1-6-26.57c-3.67-21.17-5.18-44.93-4.32-71.5,2-26.78,5.62-50.55,11.45-71.29a182.79,182.79,0,0,1,8.43-25.92,106.24,106.24,0,0,1,12.31-22.46,55.4,55.4,0,0,1,16.2-15.56,35.07,35.07,0,0,1,20.53-5,47.31,47.31,0,0,1,12.74,2.38c.21,0,.21,0,.43.22a7.62,7.62,0,0,1,2.38.86,10,10,0,0,0,13.18-7.78l5.61-36.29a9.9,9.9,0,0,0-4.32-9.5"/><path class="cls-1" d="M1199.06,179.59c-5-26.36-11.88-47.74-20.52-64.16C1170.11,99,1160,87.13,1148.3,79.79A66.48,66.48,0,0,0,1130.15,72a.22.22,0,0,0-.22-.22A63.83,63.83,0,0,0,1110.71,69a67.75,67.75,0,0,0-37.59,11.24c-11.66,7.34-22,19.22-30.67,35.86-8.86,16.41-15.77,38-20.74,64.37s-3.89,164.61-3.89,202.41c0,37.59,2.38,69.34,7.34,95.05q7.78,38.55,20.74,62.21c8.86,15.77,19,27,30.68,33.92a73.1,73.1,0,0,0,28.51,9.5,64.48,64.48,0,0,0,9.08.65,70.89,70.89,0,0,0,37.58-10.8c11.67-7.13,21.82-18.8,30.46-34.78,8.43-16,15.34-36.72,20.3-62.43,5-25.49,7.57-56.6,7.57-93.32,0-38.45-6-176.92-11-203.27m-84.89,352.32c-5,0-9.51-2.59-13.83-7.34-4.32-5-8-13.18-11.24-24.84s-5.61-27-7.55-46c-1.73-19.23-2.82-42.78-2.82-70.86,0-28.3-2.58-158.56-.64-178.22,1.73-19.87,4.32-36.07,7.56-48.38,3-12.32,6.91-21.17,11.23-26.79s8.86-8.43,13.83-8.43a11.78,11.78,0,0,1,7.56,2.81s0-.21.21,0a26,26,0,0,1,5.62,5.4c4.1,5.62,7.78,14.48,11,26.79s5.83,28.3,7.56,48.17c1.94,19.66,6.26,149.92,6.26,178.65,0,27.43-.86,50.55-2.59,69.56-1.94,19-4.53,34.34-7.56,46.23-3.24,11.66-6.91,20.3-11.23,25.49-3.24,4.1-6.91,6.69-10.8,7.34a5.49,5.49,0,0,1-2.59.43"/></g></g></svg>