<svg xmlns="http://www.w3.org/2000/svg" viewBox="0 0 1252.17 601.39"><defs><style>.cls-1{fill:#fff;}.cls-2{fill:#fff200;}.cls-3{fill:#af0026;}</style></defs><title>Asset 3</title><g id="Layer_2" data-name="Layer 2"><g id="Layer_1-2" data-name="Layer 1"><path class="cls-1" d="M506.85,19.65A19.65,19.65,0,1,1,487.2,0a19.64,19.64,0,0,1,19.65,19.65"/><path class="cls-1" d="M337.68,542.73A42.64,42.64,0,1,1,295,500.09a42.64,42.64,0,0,1,42.64,42.64"/><path class="cls-2" d="M146.73,513.07q-18.12,2.43-34.68,3.71-16.76,1.29-34.26,1.93a10.13,10.13,0,0,1-10.44-10.22l8.49-153.64q5.32,0,10.82-.28c3.65-.18,7.16-.28,10.53-.28q9,0,18,.28,3.64.1,7.23.27a10,10,0,0,0,10.47-10.06v-35a10.06,10.06,0,0,0-10.31-10l-48.49,0c2.41-37.93.27-103.75-.45-134.31a23.81,23.81,0,0,1,24.63-24.32c7.92.27,15.8.62,20.26,1.07q11.26,1.11,22.73,2.86a10.07,10.07,0,0,0,11.68-9.88v-42a10.12,10.12,0,0,0-10.88-10q-15.6,1.13-29.71,1.86-19,1-38.08,1Q49.41,86,22.46,84.3A10.07,10.07,0,0,0,11.72,94.9c1.71,29.49,2.93,141.46,3.69,170.58q1.26,49.31,1.26,99.31,0,52.26-1.56,103.52-1.37,45.78-3.54,92.32a10.13,10.13,0,0,0,10.67,10.56q16.86-.93,32.91-1.46,21.36-.69,43.27-.7c9.73,0,19.53.1,29.35.28q9.81.2,20,.5a10.13,10.13,0,0,0,10.46-10.06V523a10.11,10.11,0,0,0-11.53-9.94"/><path class="cls-2" d="M312.89,75.6a24.27,24.27,0,0,1-4,.22c-9.08.89-17.5,1.11-25.69,1.55-12.63.67-25.47,1.11-38.1,1.11-16.61,0-33.88-.66-51.82-1.77a10.35,10.35,0,0,0-10.86,10.85c1.78,29.46,3.11,58.69,3.77,87.7.89,32.78,1.33,66,1.33,99.23,0,35-.67,69.32-1.55,103.65-.89,26.13-5.1,59.58-7.75,89.47a21,21,0,0,0,11.29,20.82,21.23,21.23,0,0,0,12.41,2.44c11.74-1.11,25.69-2.66,37.2-3.77a21.53,21.53,0,0,0,19.27-24.36L240.91,328.53c3.09,0,6.42-.22,9.74-.22,3.32-.23,6.65-.45,10-.45,6,0,12,.22,17.94.45,2.43,0,4.87,0,7.09.22a10.27,10.27,0,0,0,10.63-10.19v-35a10.17,10.17,0,0,0-10.41-10H265a23.22,23.22,0,0,1-10.4-2.44A23.59,23.59,0,0,1,241.13,249c.44-23,1.1-57.81,1.77-78.63a37.65,37.65,0,0,1,39.64-36.32c2.66.22,4.87.44,6.87.67,7.31.66,15.06,1.54,22.59,2.87a10.16,10.16,0,0,0,11.74-10V85.57a10.14,10.14,0,0,0-10.85-10"/><path class="cls-2" d="M494.05,390.1a514.7,514.7,0,0,1-27.68-44.52c-9.74-17.5-18.61-35.66-26.8-54.48-1.55-3.55-.22-7.31,3.1-9.53a103.26,103.26,0,0,0,19.94-17.72,113.83,113.83,0,0,0,17.27-25.69,121.76,121.76,0,0,0,9.52-28.79,150.26,150.26,0,0,0,3.1-29.68c0-14.83-1.77-27.46-4.87-38.09A100.33,100.33,0,0,0,475,114.36a75.93,75.93,0,0,0-17.72-17.94,85.76,85.76,0,0,0-39-15.5h-.22a106.35,106.35,0,0,0-15.29-1.33c-6,0-13.28.44-21.92,1.11a137.52,137.52,0,0,0-19.05,3.09,8,8,0,0,0-6.42,8c.89,17.72,1.33,35.21,1.77,52.49.22,19.49.45,39.2.45,58.69,0,33.66-.67,67.33-1.78,100.77-1.11,30.56-2.88,61.13-5.09,91.69a7.7,7.7,0,0,0,2.44,6,8.67,8.67,0,0,0,6.19,2.44H399c5.09,0,8.86-4,8.42-8.42-1.11-14.62-2-29.23-2.88-43.85v-.67a7.24,7.24,0,0,1,4.2-7.08c4.21-2.22,10.42-1.11,12.41,4.21L440.68,399a15.85,15.85,0,0,0,1.55,2.65,8.39,8.39,0,0,0,6.86,2.66l38.32-2c6.42-.22,10.19-7.09,6.64-12.18m-66.66-144c-5.32,6-13.07,5.76-18.61,2a14.85,14.85,0,0,1-6.64-12.62c.22-17.06.66-38.54,1.33-50.72.66-19,2-38.1,3.32-57.14a7.34,7.34,0,0,1,4.43-6.2,8.4,8.4,0,0,1,9.08.22c1.33,1.1,2.44,2,3.55,3.1a60.3,60.3,0,0,1,11.07,14.84,65.91,65.91,0,0,1,6.42,17c1.55,5.76,2.66,11.3,3.55,16.17q1,7.63,1.33,12.62v5.32A115.48,115.48,0,0,1,440.9,222a121.4,121.4,0,0,1-5.32,12.4,68.42,68.42,0,0,1-8,11.74Z"/><path class="cls-2" d="M677.21,422.87c-1.1.23-2.21.23-3.1.45-11.07,1.33-21.48,2.43-31.67,3.32-4.21.22-9.08,1.55-14.39,3.1a26.06,26.06,0,0,1-19.27-1.11,27.4,27.4,0,0,1-15.73-26.79l5.76-73.31c3.55,0,7.09-.23,10.85-.23,3.54-.22,7.09-.44,10.41-.44,6,0,12,.22,17.94.44,2.44,0,4.87,0,7.31.23a10.08,10.08,0,0,0,10.41-10.19v-35a10.11,10.11,0,0,0-10.18-10H608.78a8.73,8.73,0,0,1-6.21-2.44,9.7,9.7,0,0,1-3.54-8c.22-19.93.67-40.09,1.33-60,.45-15.5.45-37.43,1.11-57.36a19.06,19.06,0,0,1,18.16-18.39,16.93,16.93,0,0,1,7.31,1.11c4.43,1.55,8.64,3.1,12.4,4.21a60.94,60.94,0,0,0,9.52,2.21c7.54.67,15.06,1.55,22.82,2.88a10.16,10.16,0,0,0,11.74-10V85.57a10.15,10.15,0,0,0-10.86-10,24.27,24.27,0,0,1-4,.22c-9.07.89-17.71,1.11-25.91,1.55-12.62.67-25.24,1.11-38.09,1.11-16.39,0-33.66-.66-51.61-1.77a10.17,10.17,0,0,0-10.85,10.63c1.77,29.46,2.88,58.91,3.77,87.92.67,32.78,1.11,66,1.11,99.23,0,35-.44,69.32-1.55,103.65-.89,30.56-2,61.13-3.55,92.13a9.4,9.4,0,0,0,3.55,8,8.88,8.88,0,0,0,7.3,2.66c11.08-.66,22.15-1.11,32.78-1.33,14.18-.44,28.79-.66,43.41-.66,9.53,0,19.49,0,29.23.22,6.65,0,13.3.22,20.16.44a10.16,10.16,0,0,0,10.41-10V432.84a10.09,10.09,0,0,0-11.52-10"/><path class="cls-2" d="M785.08,222.44a24.7,24.7,0,0,1,8.19-7.75,20.15,20.15,0,0,1,10.63-2.88,36.15,36.15,0,0,1,4.65.22c.88,0,1.77.22,2.88.22a49.55,49.55,0,0,1,9.74,2.66l3.55,1.33,5.53,2.21a10.39,10.39,0,0,0,14.18-8.86l2.21-28.35A124,124,0,0,0,823,171.72,53.89,53.89,0,0,0,813.2,170a72.05,72.05,0,0,0-38.09,3.54,57.12,57.12,0,0,0-20.82,14.18q-9.3,9.3-14.62,23.92c-3.54,9.52-5.53,21-5.53,34.33a87.37,87.37,0,0,0,4.65,29,119.21,119.21,0,0,0,11.73,25.25,171.05,171.05,0,0,0,15.73,21.92c6,6.87,11.52,13.51,16.83,19.94,8,9.08,13.51,17.49,16.61,25.47q4.65,11.63,4.65,21.26c0,9.52-2,17.27-6.2,23-4.21,6-10.41,9.08-18.6,9.08a43.26,43.26,0,0,1-12.63-2.43,14.65,14.65,0,0,1-2.88-.89c-1.1-.44-2.43-2-3.76-4.21a9.87,9.87,0,0,0-12.85-3.76,10.5,10.5,0,0,0-6.87,10.19L741,454.1a105.35,105.35,0,0,0,13.51,5.32l5.31,1.33c2.22.66,4.43,1.1,6.43,1.55,3.54.66,6.87,1.11,9.52,1.33,2.88,0,5.09.22,6.65.22a54.89,54.89,0,0,0,10.85-1.33,76.72,76.72,0,0,0,13.07-4.43,74.61,74.61,0,0,0,13.28-8.64,52.79,52.79,0,0,0,11.74-13.95A73.35,73.35,0,0,0,840,415.35c2.21-7.76,3.1-17.06,3.1-27.47q0-19.94-4.65-35.21a124.76,124.76,0,0,0-12.18-26.8,148.25,148.25,0,0,0-15.95-21.26c-5.54-6.2-10.85-12.41-15.72-18.39a121.82,121.82,0,0,1-12.18-17.94,44.47,44.47,0,0,1-4.88-20.37,48.26,48.26,0,0,1,2-13.95,34.59,34.59,0,0,1,5.54-11.52"/><path class="cls-2" d="M1038,85.79a36.42,36.42,0,0,0-7.53-4.21,82.44,82.44,0,0,0-14-5.09c-3.11-.67-6-1.11-9.09-1.78l-6.86-.66c-5.76-.44-12.84.44-20.82,2.21-8,1.56-16.39,5.1-25.25,10.41q-13,8-25.91,21.93-13,14.28-23.92,36.54c-7.09,14.84-13.29,33-18.6,54-5.1,21-8.42,46.07-9.75,74.64-1.55,28.57-1.11,53.82,1.11,75.3,2.21,21.71,5.76,40.53,10.63,56.26a159.36,159.36,0,0,0,17.28,39.42c6.86,10.63,13.95,19.05,21.48,25.25a75.52,75.52,0,0,0,22.81,13.73c2,.67,3.77,1.33,5.54,2h.44a70,70,0,0,0,15.5,2.88c6.21,0,12.62-.22,19.27-.88,5.54-.45,12-1.55,19.27-2.88a116.93,116.93,0,0,0,13.73-3.77,10,10,0,0,0,7.09-11.07l-4.65-35.44a9.91,9.91,0,0,0-13.07-8,2,2,0,0,1-1.1.22A44.51,44.51,0,0,1,993,429.74a33.5,33.5,0,0,1-11.52-2.43h-.44a34.57,34.57,0,0,1-8.86-4.88,59.29,59.29,0,0,1-15.06-17.05A106.61,106.61,0,0,1,947,381.46a222.53,222.53,0,0,1-6.2-27.24c-3.76-21.71-5.31-46.07-4.43-73.31,2-27.46,6-51.83,11.74-73.09a187.77,187.77,0,0,1,8.86-26.57,108.22,108.22,0,0,1,12.4-23A56.75,56.75,0,0,1,986,142.27a36.18,36.18,0,0,1,21.26-5.1,5,5,0,0,1,1.78.22,31.53,31.53,0,0,1,7.53,1.33,20,20,0,0,1,3.54.89,17.16,17.16,0,0,1,3.1,1.1,9.93,9.93,0,0,0,13.29-8l5.76-37.21a10,10,0,0,0-4.21-9.74"/><path class="cls-2" d="M1240.87,186.56c-5.09-27-12.18-48.95-20.82-65.78q-13.29-25.25-31.22-36.54a72.14,72.14,0,0,0-30.12-10.41.22.22,0,0,0-.23-.22c-2.66-.22-5.53-.45-8.19-.45a69.48,69.48,0,0,0-38.54,11.52c-12,7.53-22.37,19.71-31.45,36.77-9.08,16.83-15.94,39-21.26,66-5.09,27-4,168.76-4,207.52,0,38.54,2.44,71.09,7.75,97.45,5.1,26.35,12.19,47.62,21,63.78,9.09,16.17,19.5,27.69,31.68,34.78a67,67,0,0,0,17.5,7.31,65.94,65.94,0,0,0,20.81,3.1,70.83,70.83,0,0,0,38.54-11.08c12-7.31,22.37-19.27,31.23-35.66s15.72-37.65,20.81-64c5.32-26.14,7.76-58,7.76-95.68,0-39.42-6.21-181.39-11.3-208.41M1146.74,127a19.58,19.58,0,0,1,3.55-.44c4.87,0,9.52,2.88,13.73,8.42,4.43,5.75,8.2,14.84,11.29,27.46,3.33,12.62,6,29,7.75,49.39,2,20.15,6.43,153.7,6.43,183.16,0,28.13-.89,51.83-2.66,71.31-2,19.5-4.43,35.22-7.75,47.4-3.32,12-7.09,20.82-11.52,26.14-4.2,5.31-8.85,8-13.73,8a15.06,15.06,0,0,1-8.85-2.88,24.9,24.9,0,0,1-5.32-4.65c-4.43-5.1-8.2-13.51-11.52-25.47s-5.75-27.69-7.75-47.18c-1.77-19.71-2.66-43.85-2.66-72.64,0-29-2.66-162.56-.88-182.72,1.77-20.38,4.43-37,7.75-49.61s7.08-21.7,11.51-27.46c3.33-4.21,6.87-7.09,10.41-8.2,0,0,0-.22.22,0"/><path class="cls-3" d="M335.39,460.83s59.43-82.72,148.28,4.72c0,0-22.77,78.22-148.28-4.72"/><path class="cls-3" d="M858.36,7.87s17,128.94-142.14,125.2c0,0-47.17-92.72,142.14-125.2"/><path class="cls-1" d="M135.17,510.63q-18.12,2.43-34.69,3.71-16.76,1.29-34.26,1.92a10.1,10.1,0,0,1-10.43-10.21l8.48-153.64c3.56,0,7.16-.1,10.82-.28s7.17-.29,10.54-.29q9,0,18,.29,3.65.11,7.23.27a10,10,0,0,0,10.46-10.06v-35A10.07,10.07,0,0,0,111,297.3c-.63,0-25.72,0-48.49,0,2.41-37.92.27-103.74-.45-134.31a23.8,23.8,0,0,1,24.63-24.31c7.92.27,15.8.62,20.25,1.06q11.28,1.13,22.74,2.86a10.06,10.06,0,0,0,11.68-9.88v-42a10.12,10.12,0,0,0-10.88-10q-15.6,1.13-29.72,1.85-19,1-38.07,1-24.84,0-51.79-1.73A10.06,10.06,0,0,0,.16,92.46C1.86,122,3.09,233.91,3.84,263q1.28,49.31,1.27,99.31,0,52.26-1.56,103.53Q2.17,511.64,0,558.18a10.12,10.12,0,0,0,10.67,10.56q16.85-.93,32.91-1.45,21.35-.69,43.26-.7,14.61,0,29.36.28,9.81.18,20,.5a10.12,10.12,0,0,0,10.45-10.06V520.57a10.11,10.11,0,0,0-11.52-9.94"/><path class="cls-1" d="M308.9,75.82a10.19,10.19,0,0,0-7.53-2.66c-10.41.67-20.38,1.33-29.9,1.78-12.63.66-25.25,1.1-37.87,1.1-16.61,0-33.89-.66-51.83-1.77a10.34,10.34,0,0,0-10.85,10.85c1.77,29.46,2.88,58.7,3.76,87.71.89,32.78,1.34,66,1.34,99.22,0,35-.67,69.32-1.56,103.65-.88,26.14-5.09,59.58-8,89.48a21.45,21.45,0,0,0,23,23.25h.89c11.74-1.11,25.69-2.66,37-3.76a21.71,21.71,0,0,0,19.5-24.37l-17.5-134.21c3.1,0,6.42-.22,9.74-.22,3.33-.22,6.65-.44,9.75-.44,6,0,12,.22,18.16.44,2.22,0,4.65,0,7.09.22a10.08,10.08,0,0,0,10.41-10.19v-35a9.32,9.32,0,0,0-3.77-7.53,9.66,9.66,0,0,0-6.42-2.44H253.53a23.92,23.92,0,0,1-23.92-24.36c.44-23,1.1-57.8,1.78-78.62A37.65,37.65,0,0,1,271,131.63q4,.35,6.65.67c7.53.66,15.28,1.55,22.81,2.88a10.16,10.16,0,0,0,11.74-10V83.13a9.88,9.88,0,0,0-3.32-7.31"/><path class="cls-1" d="M482.31,387.66a510.86,510.86,0,0,1-27.46-44.52c-9.74-17.49-18.6-35.65-26.8-54.48-1.55-3.54-.22-7.31,3.1-9.52a111,111,0,0,0,19.94-17.72,118.35,118.35,0,0,0,26.8-54.48,150,150,0,0,0,2.87-29.68c0-14.84-1.54-27.46-4.87-38.1a88.29,88.29,0,0,0-12.63-27.24A70.88,70.88,0,0,0,445.77,94a87.48,87.48,0,0,0-19.93-10.63c-2.66-.89-5.1-1.77-7.53-2.44h-.22a51.91,51.91,0,0,0-11.3-2.43,111.6,111.6,0,0,0-15.5-1.33c-6.2,0-13.51.44-22.15,1.11a132.86,132.86,0,0,0-18.82,3.1,8,8,0,0,0-6.43,8c.89,17.72,1.33,35.22,1.78,52.49.22,19.49.44,39.2.44,58.69,0,33.67-.67,67.33-1.78,100.78-1.1,30.56-2.88,61.12-5.09,91.69a8.26,8.26,0,0,0,8.42,8.41h39.86c4.87,0,8.86-4,8.42-8.41-1.11-14.62-2-29.24-2.88-43.86v-.66c-.45-8.42,11.29-11.07,15.72-4.65a4.35,4.35,0,0,1,.89,1.77l19.27,50.94a8.79,8.79,0,0,0,8.63,5.32l4.66-.23,33.66-1.77c6.42-.22,10.19-7.08,6.42-12.18M390.63,233.07c.22-17.28.66-38.54,1.1-50.72.88-19,2-38.09,3.55-57.14.44-6,8.19-9.74,13.5-6,.67.67,1.55,1.33,2.44,2.22a3.89,3.89,0,0,1,1.11.88,60.3,60.3,0,0,1,11.07,14.84,87.37,87.37,0,0,1,6.43,17.06c1.54,5.75,2.65,11.29,3.54,16.16.66,5.1,1.11,9.3,1.33,12.63v5.31a107.07,107.07,0,0,1-5.54,31.23,67.59,67.59,0,0,1-5.31,12.4,49.88,49.88,0,0,1-8,11.74,13.62,13.62,0,0,1-7.09,4.43c-8.63,1.77-18.38-4.87-18.15-15.06"/><path class="cls-1" d="M674.11,423.32a10.13,10.13,0,0,0-8.63-2.88c-12,1.55-23.48,2.88-34.56,3.76-4.2.23-9.3,1.55-14.39,3.11a24,24,0,0,1-7.75,1.32,27.06,27.06,0,0,1-27.24-29.23l5.75-73.31c3.55,0,7.09-.22,10.63-.22,3.77-.22,7.32-.44,10.63-.44,6,0,12,.22,18,.44,2.43,0,4.87,0,7.31.22a10.08,10.08,0,0,0,10.41-10.19v-35a9.34,9.34,0,0,0-3.77-7.53,9.66,9.66,0,0,0-6.42-2.44H597.26a10.46,10.46,0,0,1-10-10.41c.45-19.93.89-40.08,1.56-60,.44-15.5.44-37.43,1.1-57.36a19,19,0,0,1,25.47-17.27,31,31,0,0,0,4.21,1.32c7.09,2.66,13.73,4.66,17.72,5.1.66,0,1.33.22,2,.22,6.87.66,13.73,1.55,20.82,2.66a10.09,10.09,0,0,0,11.52-10V83.13a9.67,9.67,0,0,0-3.11-7.31,10.39,10.39,0,0,0-7.75-2.66c-10.4.67-20.15,1.33-29.67,1.78-12.62.66-25.25,1.1-38.1,1.1-16.39,0-33.66-.66-51.6-1.77A10.06,10.06,0,0,0,530.59,84.9c1.78,29.46,2.89,58.92,3.55,87.93.89,32.78,1.33,66,1.33,99.22,0,35-.44,69.32-1.55,103.65-.89,30.34-2,61.13-3.54,92.14a10.17,10.17,0,0,0,10.85,10.63c1.32,0,2.88-.23,4.21-.23,9.74-.44,19.26-.88,28.56-1.1q21.27-.66,43.2-.67c9.74,0,19.48,0,29.45.23,6.42,0,13.29.22,19.93.44a10.22,10.22,0,0,0,10.63-10V430.41a9.19,9.19,0,0,0-3.1-7.09"/><path class="cls-1" d="M773.56,220a24.7,24.7,0,0,1,8.19-7.75,20.27,20.27,0,0,1,10.63-2.88c2,0,4.43.22,7.53.44a50.05,50.05,0,0,1,8.64,2.22c.44.22.66.22,1.11.44l9.08,3.55a8,8,0,0,0,6,.22,10.14,10.14,0,0,0,8.19-9.08l2-28.35A99.26,99.26,0,0,0,813.2,170c-.67-.22-1.11-.44-1.77-.66a95.15,95.15,0,0,0-23.26-2.88,66.43,66.43,0,0,0-24.58,4.65,55.43,55.43,0,0,0-20.82,14.17q-9.3,9.3-14.62,23.92c-3.76,9.52-5.53,21-5.53,34.33a87.59,87.59,0,0,0,4.65,29A109.29,109.29,0,0,0,739,297.74a171.79,171.79,0,0,0,15.72,21.93c5.76,6.86,11.52,13.51,16.83,19.93,8,9.08,13.52,17.5,16.61,25.47q4.65,11.63,4.65,21.26c0,9.53-2,17.28-6.2,23-4.2,6-10.41,9.08-18.6,9.08h-1.11a48.24,48.24,0,0,1-14.39-3.55c-1.11-.22-2.44-1.77-4-4a5.72,5.72,0,0,0-1.11-1.33c-6.2-7.31-18.6-2.22-18.6,7.75l.66,34.33A94.45,94.45,0,0,0,743,457c4.21,1.11,8.19,2.22,11.74,2.88,1.78.22,3.54.67,5.09.89s3.11.22,4.43.44c2.89,0,4.87.22,6.65.22a51.1,51.1,0,0,0,10.63-1.33,64.8,64.8,0,0,0,13.07-4.42A69.85,69.85,0,0,0,808.11,447a57.49,57.49,0,0,0,11.73-14,67,67,0,0,0,8.42-20.15c2.22-7.75,3.32-17.05,3.32-27.46,0-13.29-1.55-25-4.87-35.22a114.53,114.53,0,0,0-12.18-26.8,132.1,132.1,0,0,0-15.73-21.26c-5.53-6.2-10.85-12.4-15.72-18.38a122.35,122.35,0,0,1-12.18-17.94A42,42,0,0,1,766,245.47a47.18,47.18,0,0,1,2-13.95A34.78,34.78,0,0,1,773.56,220"/><path class="cls-1" d="M1026.26,83.35a40.06,40.06,0,0,0-7.31-4.43c-4-1.55-7.75-3.1-11.52-4.2l-2.65-.67a123.11,123.11,0,0,0-15.72-2.44c-5.76-.44-12.85.45-20.83,2.22C960,75.38,951.84,78.92,943,84.24q-13,8-25.92,21.92-13,14.3-23.92,36.55c-7.31,14.84-13.51,33-18.6,54s-8.42,46.07-10,74.64c-1.33,28.57-1.11,53.81,1.33,75.3,2.22,21.7,5.76,40.53,10.41,56.25,4.87,15.73,10.63,28.79,17.5,39.42,6.65,10.64,13.95,19.05,21.48,25.25a75.12,75.12,0,0,0,22.81,13.73,77.29,77.29,0,0,0,17.06,4.43h.44a23.56,23.56,0,0,0,4,.45,191.32,191.32,0,0,0,19.27-.89c5.54-.44,12-1.55,19.26-2.88,4.43-1.11,9.08-2.21,13.73-3.76a10.21,10.21,0,0,0,7.09-11.08l-4.65-35.43a7.75,7.75,0,0,0-2.65-5.32,9.47,9.47,0,0,0-10.42-2.66,55.49,55.49,0,0,1-19.71,3.1h-.44a35.47,35.47,0,0,1-20.37-7.3,57.22,57.22,0,0,1-15.06-17.28,100.09,100.09,0,0,1-10.2-23.7,222.53,222.53,0,0,1-6.2-27.24c-3.76-21.7-5.31-46.07-4.43-73.31,2-27.46,5.76-51.82,11.74-73.08a187,187,0,0,1,8.64-26.58,109.12,109.12,0,0,1,12.62-23,56.75,56.75,0,0,1,16.61-15.94,35.93,35.93,0,0,1,21.05-5.1,48.52,48.52,0,0,1,13.06,2.44c.22,0,.22,0,.45.22a8,8,0,0,1,2.43.89,10.32,10.32,0,0,0,5.1.44,10.1,10.1,0,0,0,8.41-8.41l5.76-37.21a10.17,10.17,0,0,0-4.43-9.75"/><path class="cls-1" d="M1229.35,184.12c-5.09-27-12.18-48.94-21-65.77-8.64-16.84-19-29-31-36.55a68.45,68.45,0,0,0-18.61-8,.22.22,0,0,0-.22-.22,65.13,65.13,0,0,0-19.71-2.88,69.34,69.34,0,0,0-38.53,11.52c-12,7.52-22.59,19.71-31.46,36.76-9.08,16.83-16.16,39-21.26,66s-4,168.77-4,207.52c0,38.54,2.43,71.1,7.52,97.45q8,39.54,21.27,63.79c9.08,16.17,19.49,27.68,31.45,34.77a74.68,74.68,0,0,0,29.24,9.74,64.44,64.44,0,0,0,9.3.67,72.78,72.78,0,0,0,38.53-11.07c12-7.31,22.37-19.27,31.23-35.66,8.64-16.39,15.72-37.65,20.82-64,5.09-26.13,7.75-58,7.75-95.68,0-39.42-6.2-181.39-11.3-208.41m-87,361.23c-5.1,0-9.75-2.66-14.18-7.53-4.43-5.09-8.19-13.51-11.52-25.47s-5.75-27.68-7.75-47.17c-1.77-19.71-2.88-43.85-2.88-72.65,0-29-2.65-162.56-.66-182.71,1.77-20.38,4.43-37,7.75-49.62,3.1-12.62,7.09-21.7,11.52-27.46s9.08-8.64,14.17-8.64a12.06,12.06,0,0,1,7.75,2.88s0-.22.22,0a26.4,26.4,0,0,1,5.76,5.54c4.21,5.76,8,14.84,11.3,27.46s6,29,7.75,49.39c2,20.16,6.42,153.71,6.42,183.16,0,28.13-.88,51.83-2.65,71.32-2,19.49-4.65,35.21-7.76,47.4-3.32,12-7.08,20.81-11.51,26.13-3.33,4.21-7.09,6.86-11.07,7.53a5.68,5.68,0,0,1-2.66.44"/></g></g></svg>